<svg fill="none" height="24" viewBox="0 0 24 24" width="24" xmlns="http://www.w3.org/2000/svg"><g fill="#292d32"><path d="m7.75 2v3h-.75c-.26 0-.51.01-.75.05v-3.05c0-.41.34-.75.75-.75s.75.34.75.75z"/><path d="m17 5h-10c-.26 0-.51.01-.75.05-2.58.3-4.25 2.21-4.25 4.95v7c0 3 2 5 5 5h10c3 0 5-2 5-5v-7c0-3-2-5-5-5zm-9.12 11c-1.38 0-2.5-1.12-2.5-2.5s1.12-2.5 2.5-2.5 2.5 1.12 2.5 2.5-1.12 2.5-2.5 2.5zm6.5.25h-.5c-.41 0-.75-.34-.75-.75s.34-.75.75-.75h.5c.41 0 .75.34.75.75s-.34.75-.75.75zm3.5 0h-.5c-.41 0-.75-.34-.75-.75s.34-.75.75-.75h.5c.41 0 .75.34.75.75s-.34.75-.75.75zm0-4h-4c-.41 0-.75-.34-.75-.75s.34-.75.75-.75h4c.41 0 .75.34.75.75s-.34.75-.75.75z"/></g></svg>